<svg width="66" height="16" viewBox="0 0 66 16" fill="none" xmlns="http://www.w3.org/2000/svg">
    <rect x="0.5" y="0.5" width="65" height="15" rx="7.5" fill="#43454A"/>
    <rect x="0.5" y="0.5" width="65" height="15" rx="7.5" stroke="#CED0D6"/>
    <path d="M13.5234 6.60156H12.3047C12.2578 6.34115 12.1706 6.11198 12.043 5.91406C11.9154 5.71615 11.7591 5.54818 11.5742 5.41016C11.3893 5.27214 11.1823 5.16797 10.9531 5.09766C10.7266 5.02734 10.4857 4.99219 10.2305 4.99219C9.76953 4.99219 9.35677 5.10807 8.99219 5.33984C8.63021 5.57161 8.34375 5.91146 8.13281 6.35937C7.92448 6.80729 7.82031 7.35417 7.82031 8C7.82031 8.65104 7.92448 9.20052 8.13281 9.64844C8.34375 10.0964 8.63151 10.4349 8.99609 10.6641C9.36068 10.8932 9.77083 11.0078 10.2266 11.0078C10.4792 11.0078 10.7188 10.974 10.9453 10.9062C11.1745 10.8359 11.3815 10.7331 11.5664 10.5977C11.7513 10.4622 11.9076 10.2969 12.0352 10.1016C12.1654 9.90365 12.2552 9.67708 12.3047 9.42188L13.5234 9.42578C13.4583 9.81901 13.332 10.181 13.1445 10.5117C12.9596 10.8398 12.7214 11.1237 12.4297 11.3633C12.1406 11.6003 11.8099 11.7839 11.4375 11.9141C11.0651 12.0443 10.6589 12.1094 10.2188 12.1094C9.52604 12.1094 8.90885 11.9453 8.36719 11.6172C7.82552 11.2865 7.39844 10.8138 7.08594 10.1992C6.77604 9.58464 6.62109 8.85156 6.62109 8C6.62109 7.14583 6.77734 6.41276 7.08984 5.80078C7.40234 5.1862 7.82943 4.71484 8.37109 4.38672C8.91276 4.05599 9.52865 3.89062 10.2188 3.89062C10.6432 3.89062 11.0391 3.95182 11.4063 4.07422C11.776 4.19401 12.1081 4.37109 12.4023 4.60547C12.6966 4.83724 12.9401 5.12109 13.1328 5.45703C13.3255 5.79036 13.4557 6.17187 13.5234 6.60156ZM21.917 8C21.917 8.85417 21.7607 9.58854 21.4482 10.2031C21.1357 10.8151 20.7074 11.2865 20.1631 11.6172C19.6214 11.9453 19.0055 12.1094 18.3154 12.1094C17.6227 12.1094 17.0042 11.9453 16.46 11.6172C15.9183 11.2865 15.4912 10.8138 15.1787 10.1992C14.8662 9.58464 14.71 8.85156 14.71 8C14.71 7.14583 14.8662 6.41276 15.1787 5.80078C15.4912 5.1862 15.9183 4.71484 16.46 4.38672C17.0042 4.05599 17.6227 3.89062 18.3154 3.89062C19.0055 3.89062 19.6214 4.05599 20.1631 4.38672C20.7074 4.71484 21.1357 5.1862 21.4482 5.80078C21.7607 6.41276 21.917 7.14583 21.917 8ZM20.7217 8C20.7217 7.34896 20.6162 6.80078 20.4053 6.35547C20.1969 5.90755 19.9105 5.56901 19.5459 5.33984C19.1839 5.10807 18.7738 4.99219 18.3154 4.99219C17.8545 4.99219 17.443 5.10807 17.0811 5.33984C16.7191 5.56901 16.4326 5.90755 16.2217 6.35547C16.0133 6.80078 15.9092 7.34896 15.9092 8C15.9092 8.65104 16.0133 9.20052 16.2217 9.64844C16.4326 10.0937 16.7191 10.4323 17.0811 10.6641C17.443 10.8932 17.8545 11.0078 18.3154 11.0078C18.7738 11.0078 19.1839 10.8932 19.5459 10.6641C19.9105 10.4323 20.1969 10.0937 20.4053 9.64844C20.6162 9.20052 20.7217 8.65104 20.7217 8ZM29.8789 4V12H28.7695L24.7031 6.13281H24.6289V12H23.4219V4H24.5391L28.6094 9.875H28.6836V4H29.8789ZM38.0967 4V12H36.9873L32.9209 6.13281H32.8467V12H31.6396V4H32.7568L36.8271 9.875H36.9014V4H38.0967ZM39.8574 12V4H44.873V5.03906H41.0645V7.47656H44.6113V8.51172H41.0645V10.9609H44.9199V12H39.8574ZM53.1299 6.60156H51.9111C51.8643 6.34115 51.777 6.11198 51.6494 5.91406C51.5218 5.71615 51.3656 5.54818 51.1807 5.41016C50.9958 5.27214 50.7887 5.16797 50.5596 5.09766C50.333 5.02734 50.0921 4.99219 49.8369 4.99219C49.376 4.99219 48.9632 5.10807 48.5986 5.33984C48.2367 5.57161 47.9502 5.91146 47.7393 6.35937C47.5309 6.80729 47.4268 7.35417 47.4268 8C47.4268 8.65104 47.5309 9.20052 47.7393 9.64844C47.9502 10.0964 48.238 10.4349 48.6025 10.6641C48.9671 10.8932 49.3773 11.0078 49.833 11.0078C50.0856 11.0078 50.3252 10.974 50.5518 10.9062C50.7809 10.8359 50.988 10.7331 51.1729 10.5977C51.3577 10.4622 51.514 10.2969 51.6416 10.1016C51.7718 9.90365 51.8617 9.67708 51.9111 9.42188L53.1299 9.42578C53.0648 9.81901 52.9385 10.181 52.751 10.5117C52.5661 10.8398 52.3278 11.1237 52.0361 11.3633C51.7471 11.6003 51.4163 11.7839 51.0439 11.9141C50.6715 12.0443 50.2653 12.1094 49.8252 12.1094C49.1325 12.1094 48.5153 11.9453 47.9736 11.6172C47.432 11.2865 47.0049 10.8138 46.6924 10.1992C46.3825 9.58464 46.2275 8.85156 46.2275 8C46.2275 7.14583 46.3838 6.41276 46.6963 5.80078C47.0088 5.1862 47.4359 4.71484 47.9775 4.38672C48.5192 4.05599 49.1351 3.89062 49.8252 3.89062C50.2497 3.89062 50.6455 3.95182 51.0127 4.07422C51.3825 4.19401 51.7145 4.37109 52.0088 4.60547C52.3031 4.83724 52.5465 5.12109 52.7393 5.45703C52.932 5.79036 53.0622 6.17187 53.1299 6.60156ZM54.1797 5.03906V4H60.3711V5.03906H57.875V12H56.6719V5.03906H54.1797Z"
          fill="#CED0D6"/>
</svg>
