<svg width="53" height="16" viewBox="0 0 53 16" fill="none" xmlns="http://www.w3.org/2000/svg">
    <rect x="0.5" y="0.5" width="52" height="15" rx="7.5" fill="#43454A"/>
    <rect x="0.5" y="0.5" width="52" height="15" rx="7.5" stroke="#CED0D6"/>
    <path d="M9.46875 12H6.87891V4H9.55078C10.3346 4 11.0078 4.16016 11.5703 4.48047C12.1328 4.79818 12.5638 5.25521 12.8633 5.85156C13.1654 6.44531 13.3164 7.15755 13.3164 7.98828C13.3164 8.82161 13.1641 9.53776 12.8594 10.1367C12.5573 10.7357 12.1198 11.1966 11.5469 11.5195C10.974 11.8398 10.2813 12 9.46875 12ZM8.08594 10.9453H9.40234C10.0117 10.9453 10.5182 10.8307 10.9219 10.6016C11.3255 10.3698 11.6276 10.0352 11.8281 9.59766C12.0286 9.15755 12.1289 8.62109 12.1289 7.98828C12.1289 7.36068 12.0286 6.82812 11.8281 6.39062C11.6302 5.95312 11.3346 5.62109 10.9414 5.39453C10.5482 5.16797 10.0599 5.05469 9.47656 5.05469H8.08594V10.9453ZM14.8174 12V4H19.833V5.03906H16.0244V7.47656H19.5713V8.51172H16.0244V10.9609H19.8799V12H14.8174ZM21.4453 12V4H22.6523V10.9609H26.2773V12H21.4453ZM27.6543 12V4H32.6699V5.03906H28.8613V7.47656H32.4082V8.51172H28.8613V10.9609H32.7168V12H27.6543ZM33.8877 5.03906V4H40.0791V5.03906H37.583V12H36.3799V5.03906H33.8877ZM41.4473 12V4H46.4629V5.03906H42.6543V7.47656H46.2012V8.51172H42.6543V10.9609H46.5098V12H41.4473Z"
          fill="#CED0D6"/>
</svg>
