<svg width="34" height="16" viewBox="0 0 34 16" fill="none" xmlns="http://www.w3.org/2000/svg">
    <rect x="0.5" y="0.5" width="33" height="15" rx="7.5" fill="#43454A"/>
    <rect x="0.5" y="0.5" width="33" height="15" rx="7.5" stroke="#CED0D6"/>
    <path d="M12.293 6.52734C12.2174 6.29036 12.1159 6.07812 11.9883 5.89062C11.8633 5.70052 11.7135 5.53906 11.5391 5.40625C11.3646 5.27083 11.1654 5.16797 10.9414 5.09766C10.7201 5.02734 10.4766 4.99219 10.2109 4.99219C9.76042 4.99219 9.35417 5.10807 8.99219 5.33984C8.63021 5.57161 8.34375 5.91146 8.13281 6.35937C7.92448 6.80469 7.82031 7.35026 7.82031 7.99609C7.82031 8.64453 7.92578 9.19271 8.13672 9.64062C8.34766 10.0885 8.63672 10.4284 9.00391 10.6602C9.37109 10.8919 9.78906 11.0078 10.2578 11.0078C10.6927 11.0078 11.0716 10.9193 11.3945 10.7422C11.7201 10.5651 11.9714 10.3151 12.1484 9.99219C12.3281 9.66667 12.418 9.28385 12.418 8.84375L12.7305 8.90234H10.4414V7.90625H13.5859V8.81641C13.5859 9.48828 13.4427 10.0716 13.1563 10.5664C12.8724 11.0586 12.4792 11.4388 11.9766 11.707C11.4766 11.9753 10.9036 12.1094 10.2578 12.1094C9.53385 12.1094 8.89844 11.9427 8.35156 11.6094C7.80729 11.276 7.38281 10.8034 7.07813 10.1914C6.77344 9.57682 6.62109 8.84766 6.62109 8.00391C6.62109 7.36589 6.70964 6.79297 6.88672 6.28516C7.0638 5.77734 7.3125 5.34635 7.63281 4.99219C7.95573 4.63542 8.33464 4.36328 8.76953 4.17578C9.20703 3.98568 9.6849 3.89062 10.2031 3.89062C10.6354 3.89062 11.0378 3.95443 11.4102 4.08203C11.7852 4.20964 12.1185 4.39062 12.4102 4.625C12.7044 4.85937 12.9479 5.13802 13.1406 5.46094C13.3333 5.78125 13.4635 6.13672 13.5313 6.52734H12.293ZM15.1182 12V4H20.1338V5.03906H16.3252V7.47656H19.8721V8.51172H16.3252V10.9609H20.1807V12H15.1182ZM21.3516 5.03906V4H27.543V5.03906H25.0469V12H23.8438V5.03906H21.3516Z"
          fill="#CED0D6"/>
</svg>
