<svg width="42" height="16" viewBox="0 0 42 16" fill="none" xmlns="http://www.w3.org/2000/svg">
    <rect x="0.5" y="0.5" width="41" height="15" rx="7.5" fill="#EBECF0"/>
    <rect x="0.5" y="0.5" width="41" height="15" rx="7.5" stroke="#6C707E"/>
    <path d="M6.87891 12V4H8.08594V7.47656H12.0742V4H13.2852V12H12.0742V8.51172H8.08594V12H6.87891ZM15.043 12V4H20.0586V5.03906H16.25V7.47656H19.7969V8.51172H16.25V10.9609H20.1055V12H15.043ZM22.3467 12H21.0654L23.9443 4H25.3389L28.2178 12H26.9365L24.6748 5.45312H24.6123L22.3467 12ZM22.5615 8.86719H26.7178V9.88281H22.5615V8.86719ZM31.9629 12H29.373V4H32.0449C32.8288 4 33.502 4.16016 34.0645 4.48047C34.627 4.79818 35.0579 5.25521 35.3574 5.85156C35.6595 6.44531 35.8105 7.15755 35.8105 7.98828C35.8105 8.82161 35.6582 9.53776 35.3535 10.1367C35.0514 10.7357 34.6139 11.1966 34.041 11.5195C33.4681 11.8398 32.7754 12 31.9629 12ZM30.5801 10.9453H31.8965C32.5059 10.9453 33.0124 10.8307 33.416 10.6016C33.8197 10.3698 34.1217 10.0352 34.3223 9.59766C34.5228 9.15755 34.623 8.62109 34.623 7.98828C34.623 7.36068 34.5228 6.82812 34.3223 6.39062C34.1243 5.95312 33.8288 5.62109 33.4355 5.39453C33.0423 5.16797 32.554 5.05469 31.9707 5.05469H30.5801V10.9453Z"
          fill="#6C707E"/>
</svg>
