<svg width="16" height="16" viewBox="0 0 16 16" fill="none" xmlns="http://www.w3.org/2000/svg">
    <path fill-rule="evenodd" clip-rule="evenodd"
          d="M3.60505 8.85501C3.87005 9.08501 3.99755 9.39251 3.98755 9.77751L3.95755 11.57C3.95255 12.06 4.05755 12.4875 4.27255 12.8525C4.49255 13.2225 4.80255 13.505 5.20255 13.7C5.60755 13.9 6.07755 14 6.61255 14H7.5V12.995H6.62005C6.14505 12.995 5.76755 12.8625 5.48755 12.5975C5.21255 12.3375 5.08005 11.9875 5.09005 11.5475L5.12005 9.77001C5.13005 9.30501 4.99255 8.91001 4.70755 8.58501C4.42255 8.25501 4.03755 8.04501 3.55255 7.95501C4.03755 7.92001 4.42255 7.74251 4.70755 7.42251C4.99255 7.09751 5.13005 6.68001 5.12005 6.17001L5.09005 4.6025C5.08505 4.1125 5.23255 3.725 5.53255 3.44C5.83755 3.15 6.25005 3.005 6.77005 3.005H7.5V2H6.76255C6.18755 2 5.68755 2.105 5.26255 2.315C4.83755 2.525 4.51005 2.825 4.28005 3.215C4.05505 3.605 3.94755 4.06 3.95755 4.58L3.98755 6.16251C3.99755 6.54751 3.87005 6.85501 3.60505 7.08501C3.34005 7.31501 2.98255 7.43001 2.53255 7.43001H2V8.51001H2.53255C2.98255 8.51001 3.34005 8.62501 3.60505 8.85501ZM14 8.25606V7.43001H13.4695C13.0195 7.43001 12.662 7.31501 12.397 7.08501C12.132 6.85501 12.0045 6.54751 12.0145 6.16251L12.0445 4.58C12.0545 4.06 11.9445 3.605 11.7145 3.215C11.4895 2.825 11.1645 2.525 10.7395 2.315C10.3145 2.105 9.81455 2 9.23955 2H8.5V3.005H9.23205C9.75205 3.005 10.162 3.15 10.462 3.44C10.767 3.725 10.917 4.1125 10.912 4.6025L10.882 6.17001C10.872 6.68001 11.0095 7.09751 11.2945 7.42251C12.0099 8.22577 12.9375 8.25606 14 8.25606Z"
          fill="#834DF0"/>
    <path fill-rule="evenodd" clip-rule="evenodd"
          d="M13.6362 9.18853C13.2799 9.06633 12.8977 9 12.5 9C11.5335 9 10.6585 9.39175 10.0251 10.0251L11.0858 11.0858C11.4477 10.7239 11.9477 10.5 12.5 10.5C12.5651 10.5 12.6294 10.5031 12.6928 10.5092L13.6362 9.18853ZM14.3207 11.6711C14.4358 11.9237 14.5 12.2043 14.5 12.5C14.5 13.6046 13.6046 14.5 12.5 14.5C11.3954 14.5 10.5 13.6046 10.5 12.5H9C9 14.433 10.567 16 12.5 16C14.433 16 16 14.433 16 12.5C16 11.6902 15.725 10.9446 15.2632 10.3516L14.3207 11.6711Z"
          fill="#208A3C"/>
    <path d="M15 10C15.5523 10 16 9.55228 16 9C16 8.44772 15.5523 8 15 8C14.4477 8 14 8.44772 14 9C14 9.1974 14.0572 9.38144 14.1559 9.53645L12.7338 11.5275C12.6588 11.5095 12.5805 11.5 12.5 11.5C11.9477 11.5 11.5 11.9477 11.5 12.5C11.5 13.0523 11.9477 13.5 12.5 13.5C13.0523 13.5 13.5 13.0523 13.5 12.5C13.5 12.3026 13.4428 12.1185 13.344 11.9635L14.7661 9.9725C14.8412 9.99048 14.9195 10 15 10Z"
          fill="#6C707E"/>
</svg>
