<svg width="16" height="16" viewBox="0 0 16 16" fill="none" xmlns="http://www.w3.org/2000/svg">
    <path d="M4 2C2.89543 2 2 2.89543 2 4V12C2 13.1046 2.89543 14 4 14H8.25606C8.09023 13.5308 8 13.026 8 12.5C8 10.0147 10.0147 8 12.5 8C13.026 8 13.5308 8.09023 14 8.25606V4C14 2.89543 13.1046 2 12 2H4Z"
          fill="#FFF7F7"/>
    <path d="M8.59335 10.265C8.37534 10.6453 8.21125 11.0604 8.11151 11.5H7.44937V8.845L5 4.5H6.25791L7.83861 7.38L8.02848 7.775L8.21835 7.37L9.75633 4.5H11L8.59335 8.835V10.265Z"
          fill="#DB3B4B"/>
    <path d="M4 3H12C12.5523 3 13 3.44772 13 4V8.02746C13.3467 8.06579 13.6816 8.14352 14 8.25606V4C14 2.89543 13.1046 2 12 2H4C2.89543 2 2 2.89543 2 4V12C2 13.1046 2.89543 14 4 14H8.25606C8.14352 13.6816 8.06579 13.3467 8.02746 13H4C3.44772 13 3 12.5523 3 12V4C3 3.44772 3.44772 3 4 3Z"
          fill="#DB3B4B"/>
    <path fill-rule="evenodd" clip-rule="evenodd"
          d="M13.6362 9.18853C13.2799 9.06633 12.8977 9 12.5 9C11.5335 9 10.6585 9.39175 10.0251 10.0251L11.0858 11.0858C11.4477 10.7239 11.9477 10.5 12.5 10.5C12.5651 10.5 12.6294 10.5031 12.6928 10.5092L13.6362 9.18853ZM14.3207 11.6711C14.4358 11.9237 14.5 12.2043 14.5 12.5C14.5 13.6046 13.6046 14.5 12.5 14.5C11.3954 14.5 10.5 13.6046 10.5 12.5H9C9 14.433 10.567 16 12.5 16C14.433 16 16 14.433 16 12.5C16 11.6902 15.725 10.9446 15.2632 10.3516L14.3207 11.6711Z"
          fill="#208A3C"/>
    <path d="M15 10C15.5523 10 16 9.55229 16 9C16 8.44771 15.5523 8 15 8C14.4477 8 14 8.44771 14 9C14 9.1974 14.0572 9.38144 14.1559 9.53645L12.7338 11.5275C12.6588 11.5095 12.5805 11.5 12.5 11.5C11.9477 11.5 11.5 11.9477 11.5 12.5C11.5 13.0523 11.9477 13.5 12.5 13.5C13.0523 13.5 13.5 13.0523 13.5 12.5C13.5 12.3026 13.4428 12.1185 13.344 11.9635L14.7661 9.9725C14.8412 9.99048 14.9195 10 15 10Z"
          fill="#6C707E"/>
</svg>
