<svg width="66" height="16" viewBox="0 0 66 16" fill="none" xmlns="http://www.w3.org/2000/svg">
    <rect x="0.5" y="0.5" width="65" height="15" rx="7.5" fill="#43454A"/>
    <rect x="0.5" y="0.5" width="65" height="15" rx="7.5" stroke="#CED0D6"/>
    <path d="M16.3281 8C16.3281 8.85417 16.1719 9.58854 15.8594 10.2031C15.5469 10.8151 15.1185 11.2865 14.5742 11.6172C14.0326 11.9453 13.4167 12.1094 12.7266 12.1094C12.0339 12.1094 11.4154 11.9453 10.8711 11.6172C10.3294 11.2865 9.90234 10.8138 9.58984 10.1992C9.27734 9.58464 9.12109 8.85156 9.12109 8C9.12109 7.14583 9.27734 6.41276 9.58984 5.80078C9.90234 5.1862 10.3294 4.71484 10.8711 4.38672C11.4154 4.05599 12.0339 3.89062 12.7266 3.89062C13.4167 3.89062 14.0326 4.05599 14.5742 4.38672C15.1185 4.71484 15.5469 5.1862 15.8594 5.80078C16.1719 6.41276 16.3281 7.14583 16.3281 8ZM15.1328 8C15.1328 7.34896 15.0273 6.80078 14.8164 6.35547C14.6081 5.90755 14.3216 5.56901 13.957 5.33984C13.5951 5.10807 13.1849 4.99219 12.7266 4.99219C12.2656 4.99219 11.8542 5.10807 11.4922 5.33984C11.1302 5.56901 10.8438 5.90755 10.6328 6.35547C10.4245 6.80078 10.3203 7.34896 10.3203 8C10.3203 8.65104 10.4245 9.20052 10.6328 9.64844C10.8438 10.0937 11.1302 10.4323 11.4922 10.6641C11.8542 10.8932 12.2656 11.0078 12.7266 11.0078C13.1849 11.0078 13.5951 10.8932 13.957 10.6641C14.3216 10.4323 14.6081 10.0937 14.8164 9.64844C15.0273 9.20052 15.1328 8.65104 15.1328 8ZM17.833 12V4H20.6846C21.307 4 21.8226 4.11328 22.2314 4.33984C22.6403 4.56641 22.9463 4.8763 23.1494 5.26953C23.3525 5.66016 23.4541 6.10026 23.4541 6.58984C23.4541 7.08203 23.3512 7.52474 23.1455 7.91797C22.9424 8.30859 22.6351 8.61849 22.2236 8.84766C21.8148 9.07422 21.3005 9.1875 20.6807 9.1875H18.7197V8.16406H20.5713C20.9645 8.16406 21.2835 8.09635 21.5283 7.96094C21.7731 7.82292 21.9528 7.63542 22.0674 7.39844C22.182 7.16146 22.2393 6.89193 22.2393 6.58984C22.2393 6.28776 22.182 6.01953 22.0674 5.78516C21.9528 5.55078 21.7718 5.36719 21.5244 5.23438C21.2796 5.10156 20.9567 5.03516 20.5557 5.03516H19.04V12H17.833ZM24.4746 5.03906V4H30.666V5.03906H28.1699V12H26.9668V5.03906H24.4746ZM33.2412 4V12H32.0342V4H33.2412ZM41.9482 8C41.9482 8.85417 41.792 9.58854 41.4795 10.2031C41.167 10.8151 40.7386 11.2865 40.1943 11.6172C39.6527 11.9453 39.0368 12.1094 38.3467 12.1094C37.654 12.1094 37.0355 11.9453 36.4912 11.6172C35.9495 11.2865 35.5225 10.8138 35.21 10.1992C34.8975 9.58464 34.7412 8.85156 34.7412 8C34.7412 7.14583 34.8975 6.41276 35.21 5.80078C35.5225 5.1862 35.9495 4.71484 36.4912 4.38672C37.0355 4.05599 37.654 3.89062 38.3467 3.89062C39.0368 3.89062 39.6527 4.05599 40.1943 4.38672C40.7386 4.71484 41.167 5.1862 41.4795 5.80078C41.792 6.41276 41.9482 7.14583 41.9482 8ZM40.7529 8C40.7529 7.34896 40.6475 6.80078 40.4365 6.35547C40.2282 5.90755 39.9417 5.56901 39.5771 5.33984C39.2152 5.10807 38.805 4.99219 38.3467 4.99219C37.8857 4.99219 37.4743 5.10807 37.1123 5.33984C36.7503 5.56901 36.4639 5.90755 36.2529 6.35547C36.0446 6.80078 35.9404 7.34896 35.9404 8C35.9404 8.65104 36.0446 9.20052 36.2529 9.64844C36.4639 10.0937 36.7503 10.4323 37.1123 10.6641C37.4743 10.8932 37.8857 11.0078 38.3467 11.0078C38.805 11.0078 39.2152 10.8932 39.5771 10.6641C39.9417 10.4323 40.2282 10.0937 40.4365 9.64844C40.6475 9.20052 40.7529 8.65104 40.7529 8ZM49.9102 4V12H48.8008L44.7344 6.13281H44.6602V12H43.4531V4H44.5703L48.6406 9.875H48.7148V4H49.9102ZM56.0342 6.10156C55.9925 5.73177 55.8206 5.44531 55.5186 5.24219C55.2165 5.03646 54.8363 4.93359 54.3779 4.93359C54.0498 4.93359 53.766 4.98568 53.5264 5.08984C53.2868 5.19141 53.1006 5.33203 52.9678 5.51172C52.8376 5.6888 52.7725 5.89062 52.7725 6.11719C52.7725 6.30729 52.8167 6.47135 52.9053 6.60937C52.9964 6.7474 53.1149 6.86328 53.2607 6.95703C53.4092 7.04818 53.568 7.125 53.7373 7.1875C53.9066 7.2474 54.0693 7.29687 54.2256 7.33594L55.0068 7.53906C55.262 7.60156 55.5238 7.6862 55.792 7.79297C56.0602 7.89974 56.3089 8.04036 56.5381 8.21484C56.7673 8.38932 56.9521 8.60547 57.0928 8.86328C57.236 9.12109 57.3076 9.42969 57.3076 9.78906C57.3076 10.2422 57.1904 10.6445 56.9561 10.9961C56.7243 11.3477 56.387 11.625 55.9443 11.8281C55.5042 12.0313 54.9717 12.1328 54.3467 12.1328C53.7477 12.1328 53.2295 12.0378 52.792 11.8477C52.3545 11.6576 52.012 11.388 51.7646 11.0391C51.5173 10.6875 51.3805 10.2708 51.3545 9.78906H52.5654C52.5889 10.0781 52.6826 10.319 52.8467 10.5117C53.0133 10.7018 53.2256 10.8437 53.4834 10.9375C53.7438 11.0286 54.029 11.0742 54.3389 11.0742C54.68 11.0742 54.9834 11.0208 55.249 10.9141C55.5173 10.8047 55.7282 10.6536 55.8818 10.4609C56.0355 10.2656 56.1123 10.0378 56.1123 9.77734C56.1123 9.54036 56.0446 9.34635 55.9092 9.19531C55.7764 9.04427 55.5954 8.91927 55.3662 8.82031C55.1396 8.72135 54.8831 8.63411 54.5967 8.55859L53.6514 8.30078C53.0107 8.1263 52.5029 7.86979 52.1279 7.53125C51.7555 7.19271 51.5693 6.74479 51.5693 6.1875C51.5693 5.72656 51.6943 5.32422 51.9443 4.98047C52.1943 4.63672 52.5329 4.36979 52.96 4.17969C53.387 3.98698 53.8688 3.89062 54.4053 3.89062C54.9469 3.89062 55.4248 3.98568 55.8389 4.17578C56.2555 4.36589 56.5837 4.6276 56.8232 4.96094C57.0628 5.29167 57.1878 5.67187 57.1982 6.10156H56.0342Z"
          fill="#CED0D6"/>
</svg>
