<svg width="48" height="16" viewBox="0 0 48 16" fill="none" xmlns="http://www.w3.org/2000/svg">
    <rect x="0.5" y="0.5" width="47" height="15" rx="7.5" fill="#EBECF0"/>
    <rect x="0.5" y="0.5" width="47" height="15" rx="7.5" stroke="#6C707E"/>
    <path d="M6.87891 12V4H9.73047C10.3529 4 10.8685 4.11328 11.2773 4.33984C11.6862 4.56641 11.9922 4.8763 12.1953 5.26953C12.3984 5.66016 12.5 6.10026 12.5 6.58984C12.5 7.08203 12.3971 7.52474 12.1914 7.91797C11.9883 8.30859 11.681 8.61849 11.2695 8.84766C10.8607 9.07422 10.3464 9.1875 9.72656 9.1875H7.76563V8.16406H9.61719C10.0104 8.16406 10.3294 8.09635 10.5742 7.96094C10.819 7.82292 10.9987 7.63542 11.1133 7.39844C11.2279 7.16146 11.2852 6.89193 11.2852 6.58984C11.2852 6.28776 11.2279 6.01953 11.1133 5.78516C10.9987 5.55078 10.8177 5.36719 10.5703 5.23438C10.3255 5.10156 10.0026 5.03516 9.60156 5.03516H8.08594V12H6.87891ZM13.7422 12H12.4609L15.3398 4H16.7344L19.6133 12H18.332L16.0703 5.45312H16.0078L13.7422 12ZM13.957 8.86719H18.1133V9.88281H13.957V8.86719ZM19.4287 5.03906V4H25.6201V5.03906H23.124V12H21.9209V5.03906H19.4287ZM33.2891 6.60156H32.0703C32.0234 6.34115 31.9362 6.11198 31.8086 5.91406C31.681 5.71615 31.5247 5.54818 31.3398 5.41016C31.1549 5.27214 30.9479 5.16797 30.7188 5.09766C30.4922 5.02734 30.2513 4.99219 29.9961 4.99219C29.5352 4.99219 29.1224 5.10807 28.7578 5.33984C28.3958 5.57161 28.1094 5.91146 27.8984 6.35937C27.6901 6.80729 27.5859 7.35417 27.5859 8C27.5859 8.65104 27.6901 9.20052 27.8984 9.64844C28.1094 10.0964 28.3971 10.4349 28.7617 10.6641C29.1263 10.8932 29.5365 11.0078 29.9922 11.0078C30.2448 11.0078 30.4844 10.974 30.7109 10.9062C30.9401 10.8359 31.1471 10.7331 31.332 10.5977C31.5169 10.4622 31.6732 10.2969 31.8008 10.1016C31.931 9.90365 32.0208 9.67708 32.0703 9.42188L33.2891 9.42578C33.224 9.81901 33.0977 10.181 32.9102 10.5117C32.7253 10.8398 32.487 11.1237 32.1953 11.3633C31.9063 11.6003 31.5755 11.7839 31.2031 11.9141C30.8307 12.0443 30.4245 12.1094 29.9844 12.1094C29.2917 12.1094 28.6745 11.9453 28.1328 11.6172C27.5911 11.2865 27.1641 10.8138 26.8516 10.1992C26.5417 9.58464 26.3867 8.85156 26.3867 8C26.3867 7.14583 26.543 6.41276 26.8555 5.80078C27.168 5.1862 27.5951 4.71484 28.1367 4.38672C28.6784 4.05599 29.2943 3.89062 29.9844 3.89062C30.4089 3.89062 30.8047 3.95182 31.1719 4.07422C31.5417 4.19401 31.8737 4.37109 32.168 4.60547C32.4622 4.83724 32.7057 5.12109 32.8984 5.45703C33.0911 5.79036 33.2214 6.17187 33.2891 6.60156ZM34.7334 12V4H35.9404V7.47656H39.9287V4H41.1396V12H39.9287V8.51172H35.9404V12H34.7334Z"
          fill="#6C707E"/>
</svg>
