<svg width="41" height="16" viewBox="0 0 41 16" fill="none" xmlns="http://www.w3.org/2000/svg">
    <rect x="0.5" y="0.5" width="40" height="15" rx="7.5" fill="#EBECF0"/>
    <rect x="0.5" y="0.5" width="40" height="15" rx="7.5" stroke="#6C707E"/>
    <path d="M6.87891 12V4H9.73047C10.3529 4 10.8685 4.11328 11.2773 4.33984C11.6862 4.56641 11.9922 4.8763 12.1953 5.26953C12.3984 5.66016 12.5 6.10026 12.5 6.58984C12.5 7.08203 12.3971 7.52474 12.1914 7.91797C11.9883 8.30859 11.681 8.61849 11.2695 8.84766C10.8607 9.07422 10.3464 9.1875 9.72656 9.1875H7.76563V8.16406H9.61719C10.0104 8.16406 10.3294 8.09635 10.5742 7.96094C10.819 7.82292 10.9987 7.63542 11.1133 7.39844C11.2279 7.16146 11.2852 6.89193 11.2852 6.58984C11.2852 6.28776 11.2279 6.01953 11.1133 5.78516C10.9987 5.55078 10.8177 5.36719 10.5703 5.23438C10.3255 5.10156 10.0026 5.03516 9.60156 5.03516H8.08594V12H6.87891ZM20.8643 8C20.8643 8.85417 20.708 9.58854 20.3955 10.2031C20.083 10.8151 19.6546 11.2865 19.1104 11.6172C18.5687 11.9453 17.9528 12.1094 17.2627 12.1094C16.57 12.1094 15.9515 11.9453 15.4072 11.6172C14.8656 11.2865 14.4385 10.8138 14.126 10.1992C13.8135 9.58464 13.6572 8.85156 13.6572 8C13.6572 7.14583 13.8135 6.41276 14.126 5.80078C14.4385 5.1862 14.8656 4.71484 15.4072 4.38672C15.9515 4.05599 16.57 3.89062 17.2627 3.89062C17.9528 3.89062 18.5687 4.05599 19.1104 4.38672C19.6546 4.71484 20.083 5.1862 20.3955 5.80078C20.708 6.41276 20.8643 7.14583 20.8643 8ZM19.6689 8C19.6689 7.34896 19.5635 6.80078 19.3525 6.35547C19.1442 5.90755 18.8577 5.56901 18.4932 5.33984C18.1312 5.10807 17.721 4.99219 17.2627 4.99219C16.8018 4.99219 16.3903 5.10807 16.0283 5.33984C15.6663 5.56901 15.3799 5.90755 15.1689 6.35547C14.9606 6.80078 14.8564 7.34896 14.8564 8C14.8564 8.65104 14.9606 9.20052 15.1689 9.64844C15.3799 10.0937 15.6663 10.4323 16.0283 10.6641C16.3903 10.8932 16.8018 11.0078 17.2627 11.0078C17.721 11.0078 18.1312 10.8932 18.4932 10.6641C18.8577 10.4323 19.1442 10.0937 19.3525 9.64844C19.5635 9.20052 19.6689 8.65104 19.6689 8ZM26.7324 6.10156C26.6908 5.73177 26.5189 5.44531 26.2168 5.24219C25.9147 5.03646 25.5345 4.93359 25.0762 4.93359C24.748 4.93359 24.4642 4.98568 24.2246 5.08984C23.985 5.19141 23.7988 5.33203 23.666 5.51172C23.5358 5.6888 23.4707 5.89062 23.4707 6.11719C23.4707 6.30729 23.515 6.47135 23.6035 6.60937C23.6947 6.7474 23.8132 6.86328 23.959 6.95703C24.1074 7.04818 24.2663 7.125 24.4355 7.1875C24.6048 7.2474 24.7676 7.29687 24.9238 7.33594L25.7051 7.53906C25.9603 7.60156 26.222 7.6862 26.4902 7.79297C26.7585 7.89974 27.0072 8.04036 27.2363 8.21484C27.4655 8.38932 27.6504 8.60547 27.791 8.86328C27.9342 9.12109 28.0059 9.42969 28.0059 9.78906C28.0059 10.2422 27.8887 10.6445 27.6543 10.9961C27.4225 11.3477 27.0853 11.625 26.6426 11.8281C26.2025 12.0313 25.6699 12.1328 25.0449 12.1328C24.446 12.1328 23.9277 12.0378 23.4902 11.8477C23.0527 11.6576 22.7103 11.388 22.4629 11.0391C22.2155 10.6875 22.0788 10.2708 22.0527 9.78906H23.2637C23.2871 10.0781 23.3809 10.319 23.5449 10.5117C23.7116 10.7018 23.9238 10.8437 24.1816 10.9375C24.4421 11.0286 24.7272 11.0742 25.0371 11.0742C25.3783 11.0742 25.6816 11.0208 25.9473 10.9141C26.2155 10.8047 26.4264 10.6536 26.5801 10.4609C26.7337 10.2656 26.8105 10.0378 26.8105 9.77734C26.8105 9.54036 26.7428 9.34635 26.6074 9.19531C26.4746 9.04427 26.2936 8.91927 26.0645 8.82031C25.8379 8.72135 25.5814 8.63411 25.2949 8.55859L24.3496 8.30078C23.709 8.1263 23.2012 7.86979 22.8262 7.53125C22.4538 7.19271 22.2676 6.74479 22.2676 6.1875C22.2676 5.72656 22.3926 5.32422 22.6426 4.98047C22.8926 4.63672 23.2311 4.36979 23.6582 4.17969C24.0853 3.98698 24.5671 3.89062 25.1035 3.89062C25.6452 3.89062 26.123 3.98568 26.5371 4.17578C26.9538 4.36589 27.2819 4.6276 27.5215 4.96094C27.7611 5.29167 27.8861 5.67187 27.8965 6.10156H26.7324ZM29.0537 5.03906V4H35.2451V5.03906H32.749V12H31.5459V5.03906H29.0537Z"
          fill="#6C707E"/>
</svg>
