<svg width="34" height="16" viewBox="0 0 34 16" fill="none" xmlns="http://www.w3.org/2000/svg">
    <rect x="0.5" y="0.5" width="33" height="15" rx="7.5" fill="#EBECF0"/>
    <rect x="0.5" y="0.5" width="33" height="15" rx="7.5" stroke="#6C707E"/>
    <path d="M6.87891 12V4H9.73047C10.3529 4 10.8685 4.11328 11.2773 4.33984C11.6862 4.56641 11.9922 4.8763 12.1953 5.26953C12.3984 5.66016 12.5 6.10026 12.5 6.58984C12.5 7.08203 12.3971 7.52474 12.1914 7.91797C11.9883 8.30859 11.681 8.61849 11.2695 8.84766C10.8607 9.07422 10.3464 9.1875 9.72656 9.1875H7.76563V8.16406H9.61719C10.0104 8.16406 10.3294 8.09635 10.5742 7.96094C10.819 7.82292 10.9987 7.63542 11.1133 7.39844C11.2279 7.16146 11.2852 6.89193 11.2852 6.58984C11.2852 6.28776 11.2279 6.01953 11.1133 5.78516C10.9987 5.55078 10.8177 5.36719 10.5703 5.23438C10.3255 5.10156 10.0026 5.03516 9.60156 5.03516H8.08594V12H6.87891ZM19.0596 4H20.2705V9.26172C20.2705 9.82161 20.139 10.3177 19.876 10.75C19.613 11.1797 19.2432 11.5182 18.7666 11.7656C18.29 12.0104 17.7314 12.1328 17.0908 12.1328C16.4528 12.1328 15.8955 12.0104 15.4189 11.7656C14.9424 11.5182 14.5726 11.1797 14.3096 10.75C14.0465 10.3177 13.915 9.82161 13.915 9.26172V4H15.1221V9.16406C15.1221 9.52604 15.2015 9.84766 15.3604 10.1289C15.5218 10.4102 15.7497 10.6315 16.0439 10.793C16.3382 10.9518 16.6872 11.0312 17.0908 11.0312C17.4971 11.0312 17.8473 10.9518 18.1416 10.793C18.4385 10.6315 18.665 10.4102 18.8213 10.1289C18.9801 9.84766 19.0596 9.52604 19.0596 9.16406V4ZM21.6309 5.03906V4H27.8223V5.03906H25.3262V12H24.123V5.03906H21.6309Z"
          fill="#6C707E"/>
</svg>
