<svg width="48" height="16" viewBox="0 0 48 16" fill="none" xmlns="http://www.w3.org/2000/svg">
    <rect x="0.5" y="0.5" width="47" height="15" rx="7.5" fill="#43454A"/>
    <rect x="0.5" y="0.5" width="47" height="15" rx="7.5" stroke="#CED0D6"/>
    <path d="M6.48438 5.03906V4H12.6758V5.03906H10.1797V12H8.97656V5.03906H6.48438ZM14.0439 12V4H16.8955C17.5153 4 18.0296 4.10677 18.4385 4.32031C18.8499 4.53385 19.1572 4.82943 19.3604 5.20703C19.5635 5.58203 19.665 6.01562 19.665 6.50781C19.665 6.9974 19.5622 7.42839 19.3564 7.80078C19.1533 8.17057 18.846 8.45833 18.4346 8.66406C18.0257 8.86979 17.5114 8.97266 16.8916 8.97266H14.7314V7.93359H16.7822C17.1729 7.93359 17.4906 7.8776 17.7354 7.76562C17.9827 7.65365 18.1637 7.49089 18.2783 7.27734C18.3929 7.0638 18.4502 6.80729 18.4502 6.50781C18.4502 6.20573 18.3916 5.94401 18.2744 5.72266C18.1598 5.5013 17.9788 5.33203 17.7314 5.21484C17.4867 5.09505 17.165 5.03516 16.7666 5.03516H15.251V12H14.0439ZM17.9932 8.39062L19.9697 12H18.5947L16.6572 8.39062H17.9932ZM21.8096 12H20.5283L23.4072 4H24.8018L27.6807 12H26.3994L24.1377 5.45312H24.0752L21.8096 12ZM22.0244 8.86719H26.1807V9.88281H22.0244V8.86719ZM35.1045 6.60156H33.8857C33.8389 6.34115 33.7516 6.11198 33.624 5.91406C33.4964 5.71615 33.3402 5.54818 33.1553 5.41016C32.9704 5.27214 32.7633 5.16797 32.5342 5.09766C32.3076 5.02734 32.0667 4.99219 31.8115 4.99219C31.3506 4.99219 30.9378 5.10807 30.5732 5.33984C30.2113 5.57161 29.9248 5.91146 29.7139 6.35937C29.5055 6.80729 29.4014 7.35417 29.4014 8C29.4014 8.65104 29.5055 9.20052 29.7139 9.64844C29.9248 10.0964 30.2126 10.4349 30.5771 10.6641C30.9417 10.8932 31.3519 11.0078 31.8076 11.0078C32.0602 11.0078 32.2998 10.974 32.5264 10.9062C32.7555 10.8359 32.9626 10.7331 33.1475 10.5977C33.3324 10.4622 33.4886 10.2969 33.6162 10.1016C33.7464 9.90365 33.8363 9.67708 33.8857 9.42188L35.1045 9.42578C35.0394 9.81901 34.9131 10.181 34.7256 10.5117C34.5407 10.8398 34.3024 11.1237 34.0107 11.3633C33.7217 11.6003 33.391 11.7839 33.0186 11.9141C32.6462 12.0443 32.2399 12.1094 31.7998 12.1094C31.1071 12.1094 30.4899 11.9453 29.9482 11.6172C29.4066 11.2865 28.9795 10.8138 28.667 10.1992C28.3571 9.58464 28.2021 8.85156 28.2021 8C28.2021 7.14583 28.3584 6.41276 28.6709 5.80078C28.9834 5.1862 29.4105 4.71484 29.9521 4.38672C30.4938 4.05599 31.1097 3.89062 31.7998 3.89062C32.2243 3.89062 32.6201 3.95182 32.9873 4.07422C33.3571 4.19401 33.6891 4.37109 33.9834 4.60547C34.2777 4.83724 34.5212 5.12109 34.7139 5.45703C34.9066 5.79036 35.0368 6.17187 35.1045 6.60156ZM36.5488 12V4H41.5645V5.03906H37.7559V7.47656H41.3027V8.51172H37.7559V10.9609H41.6113V12H36.5488Z"
          fill="#CED0D6"/>
</svg>
