<svg width="16" height="16" viewBox="0 0 16 16" fill="none" xmlns="http://www.w3.org/2000/svg">
    <path fill-rule="evenodd" clip-rule="evenodd"
          d="M8 14C11.3137 14 14 11.3137 14 8C14 4.68629 11.3137 2 8 2C4.68629 2 2 4.68629 2 8C2 11.3137 4.68629 14 8 14ZM5.85001 10.68V11.5H10.55V10.68H8.70001V5.99998H6.05001V6.81998H7.80001V10.68H5.85001ZM7.63001 4.83998C7.75667 4.95331 7.93001 5.00998 8.15001 5.00998C8.37001 5.00998 8.54334 4.95331 8.67001 4.83998C8.79667 4.72665 8.86001 4.57331 8.86001 4.37998C8.86001 4.17998 8.79667 4.02331 8.67001 3.90998C8.54334 3.78998 8.37001 3.72998 8.15001 3.72998C7.93001 3.72998 7.75667 3.78998 7.63001 3.90998C7.50334 4.02331 7.44001 4.17998 7.44001 4.37998C7.44001 4.57331 7.50334 4.72665 7.63001 4.83998Z"
          fill="#37D379"/>
</svg>
