<svg width="16" height="16" viewBox="0 0 16 16" fill="none" xmlns="http://www.w3.org/2000/svg">
    <path d="M10.6456 2.02663C10.5196 1.85315 7.88909 2.68 6.97312 3.18107C6.85338 3.2465 6.25697 3.65579 5.6478 4.09051C4.73611 4.74109 4.46427 4.96919 4.11141 5.37996C2.87769 6.81623 2.25752 8.71555 2.52402 10.2419C2.65497 10.9921 2.76514 11.2858 3.14222 11.8907L3.51554 12.4896L3.73069 12.3334C3.88014 12.2248 4.06483 11.908 4.33553 11.2957C5.12423 9.51163 5.65686 8.63335 6.59046 7.57746C7.11959 6.97895 8.20963 5.93957 8.29715 5.9501C8.31797 5.95267 8.03609 6.5657 7.6707 7.31234C6.80605 9.07909 6.23929 10.4474 6.00359 11.3371C5.8993 11.7308 5.71118 12.4291 5.58558 12.8889C5.37183 13.6712 5.36916 13.7269 5.54306 13.7567C5.84906 13.8091 6.90246 13.4867 7.50868 13.1551C7.9353 12.9217 8.32724 12.6706 8.68182 12.4042V9.925H9.73378C9.08925 9.35813 8.68182 8.52731 8.68182 7.6C8.68182 6.03359 9.84637 4.73682 11.3561 4.52905C11.2551 4.00304 11.1147 3.44895 10.9353 2.85747C10.8116 2.44953 10.6812 2.07569 10.6456 2.02663Z"
          fill="#37D379"/>
    <path d="M12.4599 9.51569C13.2499 9.23766 13.8162 8.48494 13.8162 7.59998C13.8162 6.47769 12.9041 5.56561 11.7818 5.56561C10.6595 5.56561 9.74743 6.47769 9.74743 7.59998C9.74743 8.48494 10.3137 9.23766 11.1037 9.51569V10.9906H9.74743V12.3469H11.1037V13.025H12.4599V9.51569ZM11.1037 7.59998C11.1037 7.22702 11.4088 6.92186 11.7818 6.92186C12.1548 6.92186 12.4599 7.22702 12.4599 7.59998C12.4599 7.97295 12.1548 8.27811 11.7818 8.27811C11.4088 8.27811 11.1037 7.97295 11.1037 7.59998Z"
          fill="#9AA7B0"/>
</svg>
