<svg width="12" height="12" viewBox="0 0 12 12" fill="none" xmlns="http://www.w3.org/2000/svg">
<g clip-path="url(#clip0_2468_37447)">
<path fill-rule="evenodd" clip-rule="evenodd" d="M9.98691 9.05311C9.76482 5.27394 6.74442 2.24691 2.96806 2.01438C5.28476 0.0886204 8.4333 -0.0625701 10.2531 1.75723C12.0757 3.57987 11.9212 6.73541 9.98691 9.05311ZM8.97729 10.0473C8.99233 9.86687 9.00001 9.68434 9.00001 9.50002C9.00001 5.91017 6.08986 3.00002 2.50001 3.00002C2.32248 3.00002 2.14663 3.00713 1.9727 3.0211C1.38515 3.74467 0.968667 4.54644 0.729111 5.36186C1.27262 5.12896 1.87126 5.00002 2.50001 5.00002C4.98529 5.00002 7.00001 7.01473 7.00001 9.50002C7.00001 10.1346 6.86863 10.7386 6.63159 11.2861C7.44834 11.0487 8.25185 10.6338 8.97729 10.0473ZM5.36482 11.5112C5.76503 10.9422 6.00001 10.2485 6.00001 9.50002C6.00001 7.56702 4.433 6.00002 2.50001 6.00002C1.75653 6.00002 1.0672 6.23183 0.500345 6.62712C0.437272 7.55429 0.608659 8.45579 1.02324 9.23561C1.14814 8.53328 1.7618 8.00002 2.50001 8.00002C3.32843 8.00002 4.00001 8.67159 4.00001 9.50002C4.00001 10.2406 3.46331 10.8558 2.75765 10.978C3.53623 11.3964 4.43736 11.5712 5.36482 11.5112Z" fill="#37D379" fill-opacity="0.9"/>
</g>
<defs>
<clipPath id="clip0_2468_37447">
<rect width="12" height="12" fill="white"/>
</clipPath>
</defs>
</svg>
