<svg width="12" height="12" viewBox="0 0 12 12" fill="none" xmlns="http://www.w3.org/2000/svg">
<g clip-path="url(#clip0_2468_37414)">
<path fill-rule="evenodd" clip-rule="evenodd" d="M1.76782 10.2469C3.72044 12.1995 7.20285 11.8829 9.54599 9.5398C11.8891 7.19665 12.2057 3.71425 10.2531 1.76162C8.30048 -0.190998 4.81807 0.125585 2.47493 2.46873C1.59134 3.35232 0.995926 4.39791 0.701706 5.46239H5.09865L3.33011 3.58932C3.1449 3.39316 3.14514 3.08649 3.33068 2.89063C3.53155 2.67857 3.86939 2.67898 4.06975 2.89152L7.00001 6.00002L4.06809 9.11026C3.86848 9.32202 3.53203 9.32284 3.33139 9.11206C3.14554 8.91682 3.14479 8.61034 3.32969 8.4142L5.09865 6.53764H0.507525C0.389002 7.9333 0.799228 9.27831 1.76782 10.2469Z" fill="#37D379" fill-opacity="0.9"/>
</g>
<defs>
<clipPath id="clip0_2468_37414">
<rect width="12" height="12" fill="white"/>
</clipPath>
</defs>
</svg>
