<svg width="16" height="16" viewBox="0 0 16 16" fill="none" xmlns="http://www.w3.org/2000/svg">
    <path fill-rule="evenodd" clip-rule="evenodd"
          d="M9.88264 2.02669C9.75664 1.85321 7.12612 2.68006 6.21015 3.18113C6.09041 3.24656 5.494 3.65585 4.88483 4.09057C3.97314 4.74115 3.7013 4.96925 3.34844 5.38002C2.11472 6.81629 1.49455 8.71561 1.76105 10.242C1.892 10.9921 2.00217 11.2859 2.37925 11.8908L2.75257 12.4897L2.96772 12.3334C3.11717 12.2249 3.30186 11.908 3.57256 11.2958C4.36126 9.51169 4.89389 8.63341 5.82749 7.57752C6.35662 6.97901 7.44666 5.93964 7.53418 5.95017C7.555 5.95273 7.27312 6.56576 6.90773 7.3124C6.04308 9.07915 5.47632 10.4475 5.24062 11.3371C5.13633 11.7309 4.94821 12.4292 4.82261 12.8889C4.60886 13.6713 4.60619 13.7269 4.78009 13.7567C5.08609 13.8092 6.13949 13.4867 6.74571 13.1551C7.01649 13.007 7.2733 12.8517 7.51545 12.69L7.39054 12.4799L7.38518 12.4704C7.11242 11.988 7.22038 11.3541 7.68074 10.9978C7.18401 10.6161 7.1365 9.96373 7.39986 9.51541L7.40136 9.51286L8.01146 8.48133C8.31224 7.96109 8.91618 7.80224 9.39873 7.97292L9.41405 7.97834L9.4769 8.0029L9.48145 7.97162L9.48356 7.9593C9.57669 7.41578 10.0443 7.00006 10.6202 7.00006H10.7643C10.8557 5.76875 10.6547 4.44841 10.1723 2.85754C10.0486 2.44959 9.91828 2.07575 9.88264 2.02669ZM10.6223 8.00006H10.6202C10.5431 8.00006 10.4821 8.05318 10.4692 8.12818L10.3535 8.92193C10.164 8.99693 9.99051 9.10006 9.83309 9.21568L9.06526 8.91568C8.99458 8.89068 8.91426 8.91568 8.87571 8.98443L8.26209 10.0219C8.22354 10.0876 8.23639 10.1688 8.30064 10.2126L8.95282 10.7063C8.93675 10.8001 8.9239 10.9032 8.9239 11.0001C8.9239 11.0969 8.93033 11.2001 8.94639 11.2938L8.29422 11.7876C8.23639 11.8313 8.22033 11.9157 8.25567 11.9782L8.31859 12.084C8.928 11.5626 9.40231 10.9909 9.72392 10.3853C10.1558 9.57199 10.4542 8.79465 10.6223 8.00006Z"
          fill="#37D379"/>
    <path d="M13.5309 11.2937C13.5437 11.2 13.5502 11.1031 13.5502 11C13.5502 10.9 13.5437 10.8 13.5277 10.7062L14.1798 10.2125C14.2377 10.1687 14.2537 10.0844 14.2184 10.0219L13.6016 8.98438C13.563 8.91562 13.4827 8.89375 13.412 8.91562L12.6442 9.21562C12.4835 9.09687 12.3133 8.99687 12.1237 8.92187L12.0081 8.12812C11.9952 8.05312 11.931 8 11.8539 8H10.6202C10.5431 8 10.4821 8.05312 10.4692 8.12812L10.3535 8.92187C10.164 8.99687 9.99051 9.1 9.83309 9.21562L9.06526 8.91562C8.99458 8.89062 8.91426 8.91562 8.87571 8.98438L8.26209 10.0219C8.22354 10.0875 8.23639 10.1687 8.30064 10.2125L8.95281 10.7062C8.93675 10.8 8.9239 10.9031 8.9239 11C8.9239 11.0969 8.93033 11.2 8.94639 11.2937L8.29422 11.7875C8.23639 11.8313 8.22032 11.9156 8.25566 11.9781L8.8725 13.0156C8.91105 13.0844 8.99137 13.1063 9.06205 13.0844L9.82988 12.7844C9.99051 12.9031 10.1608 13.0031 10.3503 13.0781L10.466 13.8719C10.4821 13.9469 10.5431 14 10.6202 14H11.8539C11.931 14 11.9952 13.9469 12.0049 13.8719L12.1205 13.0781C12.3101 13.0031 12.4835 12.9031 12.641 12.7844L13.4088 13.0844C13.4795 13.1094 13.5598 13.0844 13.5983 13.0156L14.2152 11.9781C14.2537 11.9094 14.2377 11.8313 14.1766 11.7875L13.5309 11.2937ZM11.237 12.125C10.6009 12.125 10.0805 11.6188 10.0805 11C10.0805 10.3812 10.6009 9.875 11.237 9.875C11.8731 9.875 12.3936 10.3812 12.3936 11C12.3936 11.6188 11.8731 12.125 11.237 12.125Z"
          fill="#9AA7B0"/>
</svg>
