<svg opacity="0.4" width="12" height="12" viewBox="0 0 12 12" fill="none" xmlns="http://www.w3.org/2000/svg">
    <g clip-path="url(#clip0_2468_37382)">
        <path fill-rule="evenodd" clip-rule="evenodd"
              d="M10.5804 2.12937C10.0911 2.77657 9.6087 3.28106 9.13505 3.68909C8.14176 4.54476 7.16301 4.99879 6.15218 5.45522L6.06083 5.49644C5.08356 5.93732 4.06265 6.39789 3.07688 7.2473C2.42187 7.81169 1.7929 8.5374 1.18943 9.52545C-0.0866202 7.5171 0.398187 4.54545 2.47492 2.46871C4.81806 0.125569 8.30047 -0.191013 10.2531 1.76161C10.3704 1.87887 10.4794 2.00165 10.5804 2.12937ZM11.133 3.04651C10.686 3.60105 10.2375 4.05925 9.78772 4.44673C8.67538 5.40496 7.57872 5.90829 6.56371 6.36661L6.50893 6.39135C5.50971 6.84241 4.60444 7.25107 3.72964 8.00486C3.10362 8.54428 2.48035 9.27304 1.86743 10.3433C3.83703 12.1883 7.24218 11.8436 9.54599 9.53978C11.4361 7.64968 12.0075 5.01829 11.133 3.04651Z"
              fill="#37D379" fill-opacity="0.9"/>
    </g>
    <defs>
        <clipPath id="clip0_2468_37382">
            <rect width="12" height="12" fill="white"/>
        </clipPath>
    </defs>
</svg>
