<!-- Copyright 2000-2023 JetBrains s.r.o. and contributors. Use of this source code is governed by the Apache 2.0 license. -->
<svg width="16" height="16" viewBox="0 0 16 16" fill="none" xmlns="http://www.w3.org/2000/svg">
    <path fill-rule="evenodd" clip-rule="evenodd"
          d="M4.19453 5.79954C5.04269 5.47346 5.85421 5.40938 6.55758 5.37077C6.64769 5.36582 6.73573 5.36127 6.82202 5.35681C7.43676 5.32505 7.96333 5.29785 8.52301 5.1643L8.52413 5.16403C9.90936 4.83519 11.4596 3.78522 12.0463 2.56628L13.1103 0.356018L13.8949 2.68017C14.3242 3.95217 14.8186 5.64384 14.9602 7.35611C15.1005 9.05457 14.9062 10.9265 13.7873 12.4164C12.6331 13.953 10.8684 14.3875 9.29327 14.5061C8.49562 14.5661 7.6884 14.5491 6.95908 14.527L6.67327 14.5181C6.04559 14.4983 5.49521 14.481 5.00728 14.5026L4.99926 14.5031L4.95257 14.5063C4.911 14.5093 4.85025 14.5141 4.77678 14.5209C4.62776 14.5348 4.43594 14.5563 4.24942 14.587C4.04011 14.6216 3.8087 14.6092 3.58005 14.5196C3.35669 14.432 3.196 14.2944 3.08639 14.1692C2.90411 13.9611 2.80421 13.7123 2.76299 13.6097L2.72425 13.5133C2.70767 13.4719 2.69602 13.4428 2.68642 13.4201C1.33173 12.7204 0.847108 11.0666 1.04333 9.64326C1.25485 8.10892 2.25514 6.54479 4.19453 5.79954ZM6.70749 13.5187C8.95757 13.5901 11.5921 13.6737 12.9876 11.8158C14.801 9.40106 13.79 5.49626 12.9473 3C12.1967 4.55929 10.35 5.75834 8.75504 6.13698C8.10001 6.29328 7.47797 6.3249 6.86938 6.35584C6.08892 6.39552 5.33057 6.43407 4.55312 6.733C1.39817 7.9452 1.4464 11.7062 3.18434 12.5512L3.28781 12.6064C3.28781 12.6064 5.84298 12.0972 7.25648 11.5765C9.31974 10.8157 11.5864 8.93827 12.3318 6.75579C11.9363 9.02417 9.98703 11.2075 8.02987 12.2102C7.36857 12.5499 6.80041 12.7221 6.03582 12.9538C5.59499 13.0874 5.08885 13.2408 4.46192 13.4575C4.25148 13.5302 4.08663 13.6004 4.08663 13.6004C4.52243 13.5285 4.95472 13.5039 4.95472 13.5039C5.48599 13.4799 6.08188 13.4988 6.70749 13.5187Z"
          fill="#6C707E"/>
</svg>
