<!-- Copyright 2000-2023 JetBrains s.r.o. and contributors. Use of this source code is governed by the Apache 2.0 license. -->
<svg width="20" height="20" viewBox="0 0 20 20" fill="none" xmlns="http://www.w3.org/2000/svg">
    <path fill-rule="evenodd" clip-rule="evenodd"
          d="M5.24316 7.24941C6.30336 6.84182 7.31776 6.7617 8.19697 6.71344C8.30962 6.70726 8.41967 6.70158 8.52752 6.696C9.29595 6.6563 9.95416 6.62229 10.6538 6.45536L10.6552 6.45503C12.3867 6.04397 14.3245 4.73151 15.0579 3.20783L16.3879 0.445007L17.3686 3.3502C17.9053 4.94019 18.5233 7.05479 18.7002 9.19513C18.8757 11.3182 18.6327 13.6581 17.2341 15.5205C15.7914 17.4412 13.5855 17.9843 11.6166 18.1326C10.6195 18.2076 9.61051 18.1864 8.69885 18.1588L8.34159 18.1477C7.55699 18.1229 6.86901 18.1012 6.2591 18.1282L6.24908 18.1289L6.19071 18.1329C6.13875 18.1366 6.06281 18.1426 5.97098 18.1511C5.7847 18.1684 5.54493 18.1953 5.31177 18.2338C5.05014 18.2769 4.76088 18.2614 4.47506 18.1494C4.19586 18.04 3.995 17.868 3.85799 17.7115C3.63013 17.4514 3.50526 17.1404 3.45374 17.0121L3.40531 16.8915C3.38459 16.8398 3.37002 16.8034 3.35802 16.7751C1.66466 15.9005 1.05888 13.8333 1.30416 12.0541C1.56856 10.1361 2.81892 8.18097 5.24316 7.24941ZM8.38436 16.8983C11.197 16.9876 14.4902 17.0921 16.2346 14.7697C18.5012 11.7513 17.2375 6.87032 16.1841 3.74998C15.2459 5.6991 12.9376 7.19791 10.9438 7.67121C10.125 7.86658 9.34747 7.90611 8.58673 7.94479C7.61115 7.99438 6.66321 8.04257 5.6914 8.41624C1.74771 9.93148 1.808 14.6328 3.98042 15.689L4.10976 15.758C4.10976 15.758 7.30373 15.1214 9.0706 14.4706C11.6497 13.5196 14.483 11.1728 15.4147 8.44472C14.9204 11.2802 12.4838 14.0094 10.0373 15.2628C9.21072 15.6874 8.50051 15.9026 7.54478 16.1923C6.99373 16.3593 6.36107 16.551 5.5774 16.8218C5.31435 16.9128 5.10828 17.0004 5.10828 17.0004C5.65303 16.9106 6.1934 16.8799 6.1934 16.8799C6.85749 16.8499 7.60235 16.8735 8.38436 16.8983Z"
          fill="#6C707E"/>
</svg>
