<svg width="16" height="16" viewBox="0 0 16 16" fill="none" xmlns="http://www.w3.org/2000/svg">
    <path fill-rule="evenodd" clip-rule="evenodd"
          d="M4.16108 6.84909C4.4752 5.88704 5.64639 4.63891 6.5456 4.30778C8.10266 3.73424 9.68583 4.10889 10.8532 5.32704C12.0138 6.53804 12.3744 8.11959 11.8536 9.71437C11.6021 10.4847 10.7338 11.6108 10.1322 11.9466C10.1263 11.9499 10.1204 11.9532 10.1146 11.9565H5.94812C5.91221 11.9348 5.87203 11.9126 5.82708 11.8883C5.59462 11.7628 5.17156 11.3764 4.88718 11.0298C3.94743 9.88404 3.6775 8.33004 4.16108 6.84909ZM6.24969 13C6.24993 13.0578 6.25 13.1193 6.25 13.1847C6.25 14.116 6.29593 14.3009 6.60802 14.6264C6.92068 14.9528 7.09656 15 8 15C8.90343 15 9.07931 14.9528 9.39197 14.6264C9.70274 14.3023 9.75 14.1146 9.75 13.2065C9.75 13.1327 9.75015 13.064 9.75059 13H6.24969Z"
          fill="#37D379"/>
    <path fill-rule="evenodd" clip-rule="evenodd"
          d="M7.41667 2.82609V1.91304V1H8H8.58333V1.91304V2.82609H8H7.41667ZM2.6905 3.59654L3.03729 3.21124C3.22804 2.99941 3.42506 2.82609 3.47494 2.82609C3.52496 2.82609 3.8229 3.10091 4.13717 3.43661L4.70854 4.04728L4.31202 4.46104L3.9155 4.8748L3.303 4.23567L2.6905 3.59654ZM11.2915 4.04728L11.8628 3.43661C12.1771 3.10091 12.475 2.82609 12.5251 2.82609C12.5749 2.82609 12.772 2.99941 12.9627 3.21124L13.3095 3.59654L12.697 4.23567L12.0845 4.8748L11.688 4.46104L11.2915 4.04728ZM1 8.91304V8.30435V7.69565H1.875H2.75V8.30435V8.91304H1.875H1ZM13.25 8.91304V8.30435V7.69565H14.125H15V8.30435V8.91304H14.125H13.25Z"
          fill="#9AA7B0"/>
</svg>
