<svg width="12" height="12" viewBox="0 0 12 12" fill="none" xmlns="http://www.w3.org/2000/svg">
<g clip-path="url(#clip0_2468_37435)">
<path fill-rule="evenodd" clip-rule="evenodd" d="M11.1862 6.96422C10.9607 6.98788 10.7318 7.00002 10.5 7.00002C7.17267 7.00002 4.42926 4.49992 4.04582 1.27578C4.67658 0.925907 5.3395 0.689409 6.00053 0.569388C6.03761 3.02268 8.03789 5.00001 10.5 5.00001C10.8551 5.00001 11.2006 4.95889 11.532 4.88113C11.5473 5.56499 11.4309 6.27271 11.1862 6.96422ZM3.12772 1.88551C2.90232 2.06219 2.6841 2.25519 2.47496 2.46433C0.494554 4.44474 -0.0381823 7.23896 1.02324 9.23556C1.14816 8.53326 1.76181 8.00001 2.50001 8.00001C3.32843 8.00001 4.00001 8.67159 4.00001 9.50001C4.00001 10.2406 3.46333 10.8558 2.75768 10.978C4.7554 12.0516 7.55995 11.5215 9.54602 9.5354C10.0196 9.06178 10.4105 8.54162 10.7165 7.99695C10.6446 7.99899 10.5724 8.00002 10.5 8.00002C6.83123 8.00002 3.77771 5.36576 3.12772 1.88551ZM7.00008 0.477059C8.22956 0.474944 9.3906 0.894694 10.2531 1.75723C10.8451 2.34918 11.2285 3.08174 11.4101 3.88052C11.1199 3.95845 10.8148 4.00001 10.5 4.00001C8.56701 4.00001 7.00001 2.43301 7.00001 0.500014C7.00001 0.492356 7.00003 0.484705 7.00008 0.477059Z" fill="#37D379" fill-opacity="0.9"/>
</g>
<defs>
<clipPath id="clip0_2468_37435">
<rect width="12" height="12" fill="white"/>
</clipPath>
</defs>
</svg>
