<svg width="16" height="16" viewBox="0 0 16 16" fill="none" xmlns="http://www.w3.org/2000/svg">
    <path fill-rule="evenodd" clip-rule="evenodd"
          d="M8 14C11.3137 14 14 11.3137 14 8C14 4.68629 11.3137 2 8 2C4.68629 2 2 4.68629 2 8C2 11.3137 4.68629 14 8 14ZM6.28 4.70004V12H7.27V10.41L7.25 9.14004H7.27C7.33 9.50004 7.49333 9.78337 7.76 9.99004C8.02667 10.1967 8.36333 10.3 8.77 10.3C9.31667 10.3 9.75333 10.1167 10.08 9.75004C10.4067 9.3767 10.57 8.87004 10.57 8.23004V6.66004C10.57 6.0267 10.4067 5.5267 10.08 5.16004C9.75333 4.7867 9.31667 4.60004 8.77 4.60004C8.35667 4.60004 8.01667 4.70337 7.75 4.91004C7.48333 5.1167 7.32333 5.40004 7.27 5.76004H7.26V4.70004H6.28ZM9.27 9.16004C9.07 9.3467 8.78667 9.44004 8.42 9.44004C8.06667 9.44004 7.78667 9.33004 7.58 9.11004C7.37333 8.89004 7.27 8.58004 7.27 8.18004V6.72004C7.27 6.32004 7.37333 6.01004 7.58 5.79004C7.78667 5.57004 8.06667 5.46004 8.42 5.46004C8.78667 5.46004 9.07 5.5567 9.27 5.75004C9.47667 5.9367 9.58 6.24337 9.58 6.67004V8.23004C9.58 8.6567 9.47667 8.9667 9.27 9.16004Z"
          fill="#37D379"/>
</svg>
