<svg width="16" height="16" viewBox="0 0 16 16" fill="none" xmlns="http://www.w3.org/2000/svg">
    <path d="M12.2643 10.7068C13.0056 10.4459 13.537 9.73954 13.537 8.90909C13.537 7.85591 12.6811 7 11.6279 7C10.5747 7 9.71882 7.85591 9.71882 8.90909C9.71882 9.73954 10.2502 10.4459 10.9916 10.7068V12.0909H9.71882V13.3636H10.9916V14H12.2643V10.7068ZM10.9916 8.90909C10.9916 8.55909 11.2779 8.27272 11.6279 8.27272C11.9779 8.27272 12.2643 8.55909 12.2643 8.90909C12.2643 9.25909 11.9779 9.54545 11.6279 9.54545C11.2779 9.54545 10.9916 9.25909 10.9916 8.90909Z"
          fill="#9AA7B0"/>
    <path d="M10.6826 2.02663C10.5566 1.85315 7.92611 2.68 7.01014 3.18107C6.8904 3.2465 6.29399 3.65579 5.68482 4.09051C4.77313 4.74109 4.50128 4.96919 4.14843 5.37996C2.91471 6.81623 2.29454 8.71555 2.56103 10.2419C2.69198 10.9921 2.80215 11.2858 3.17924 11.8907L3.55256 12.4896L3.76771 12.3334C3.91716 12.2248 4.10185 11.908 4.37255 11.2957C5.16125 9.51163 5.69388 8.63335 6.62748 7.57746C7.1566 6.97895 8.24664 5.93957 8.33417 5.9501C8.35499 5.95267 8.0731 6.5657 7.70772 7.31234C6.84307 9.07909 6.2763 10.4474 6.04061 11.3371C5.93632 11.7308 5.7482 12.4291 5.6226 12.8889C5.40885 13.6712 5.40618 13.7269 5.58008 13.7567C5.88608 13.8091 6.93948 13.4867 7.5457 13.1551C7.97231 12.9217 8.36424 12.6706 8.71882 12.4042V11.0909H9.70599C9.10116 10.5589 8.71882 9.77929 8.71882 8.90909C8.71882 7.32108 9.99425 6.02839 11.5756 6.00046C11.5296 5.05098 11.3271 4.02738 10.9723 2.85747C10.8486 2.44953 10.7183 2.07569 10.6826 2.02663Z"
          fill="#37D379"/>
</svg>
