<svg width="16" height="16" viewBox="0 0 16 16" fill="none" xmlns="http://www.w3.org/2000/svg">
    <circle cx="12" cy="12" r="2" fill="#EBECF0"/>
    <path fill-rule="evenodd" clip-rule="evenodd"
          d="M13.7383 14.4454C13.2479 14.7946 12.6479 15 12 15C10.3431 15 9 13.6569 9 12C9 10.3431 10.3431 9 12 9C13.6569 9 15 10.3431 15 12C15 12.6479 14.7946 13.2479 14.4454 13.7383L15.8536 15.1464C16.0488 15.3417 16.0488 15.6583 15.8536 15.8536C15.6583 16.0488 15.3417 16.0488 15.1464 15.8536L13.7383 14.4454ZM14 12C14 13.1046 13.1046 14 12 14C10.8954 14 10 13.1046 10 12C10 10.8954 10.8954 10 12 10C13.1046 10 14 10.8954 14 12Z"
          fill="#6C707E"/>
    <path d="M6.55611 5.92719C5.85274 5.96513 5.04122 6.0281 4.19306 6.34848C2.25367 7.08072 1.25338 8.61754 1.04186 10.1251C0.845643 11.5236 1.33026 13.1485 2.68495 13.836C2.69455 13.8582 2.70621 13.8868 2.72278 13.9275L2.76153 14.0223C2.80274 14.1231 2.90264 14.3675 3.08492 14.572C3.19454 14.695 3.35522 14.8302 3.57859 14.9162C3.80724 15.0043 4.03864 15.0165 4.24795 14.9825C4.43448 14.9523 4.62629 14.9312 4.77532 14.9176C4.84878 14.9109 4.90953 14.9062 4.95111 14.9032L4.9978 14.9001L5.00581 14.8996C5.49374 14.8783 6.04412 14.8954 6.67179 14.9149L6.95762 14.9236C7.67458 14.9449 8.46682 14.9614 9.25124 14.9059C8.9591 14.6295 8.70861 14.3095 8.5102 13.9563C7.90184 13.9701 7.29094 13.9511 6.70602 13.9328C6.08041 13.9133 5.48453 13.8948 4.95325 13.9184C4.95325 13.9184 4.52096 13.9425 4.08516 14.0131C4.08516 14.0131 4.25001 13.9442 4.46046 13.8727C5.08736 13.6598 5.59348 13.5091 6.03431 13.3779C6.79889 13.1502 7.36711 12.981 8.02841 12.6472C8.03571 12.6436 8.04301 12.6399 8.05031 12.6362C8.0172 12.429 8 12.2165 8 12C8 11.9012 8.00359 11.8031 8.01063 11.7061C7.75782 11.8274 7.50493 11.9341 7.25502 12.0246C5.84152 12.5361 3.28634 13.0365 3.28634 13.0365L3.18287 12.9822C1.44493 12.1521 1.3967 8.45667 4.55165 7.26564C5.3291 6.97193 6.08745 6.93405 6.86791 6.89507C7.4765 6.86467 8.09855 6.8336 8.75357 6.68003C10.3486 6.308 12.1953 5.12988 12.9458 3.59782C13.4188 4.97444 13.9448 6.78705 13.9947 8.53206C14.366 8.74607 14.6996 9.01799 14.9834 9.33547C15.0115 8.84418 14.9987 8.35409 14.9587 7.87787C14.8172 6.1955 14.3228 4.53336 13.8934 3.28357L13.1088 1L12.0449 3.17167C11.4581 4.36933 9.90789 5.40096 8.52266 5.72407L8.52154 5.72433C7.96186 5.85554 7.43529 5.88228 6.82056 5.91348L6.81914 5.91355C6.73331 5.91791 6.64574 5.92236 6.55611 5.92719Z"
          fill="#208A3C"/>
    <path d="M13.9942 8.53178C13.9443 6.7868 13.4183 4.97425 12.9454 3.59766C12.1948 5.12972 10.3481 6.30783 8.75308 6.67987C8.09806 6.83344 7.47602 6.86451 6.86743 6.8949C6.08696 6.93389 5.32861 6.97177 4.55116 7.26548C1.39622 8.45651 1.44444 12.1519 3.18238 12.9821L3.28585 13.0363L3.31088 13.0313C3.57821 12.9775 5.92295 12.5063 7.25453 12.0244C7.50461 11.9338 7.75768 11.8271 8.01066 11.7057C8.13667 9.97298 9.3664 8.54648 11 8.12602C11.3196 8.04375 11.6547 8 12 8C12.3453 8 12.6804 8.04376 13 8.12602C13.3526 8.21676 13.6863 8.35436 13.9942 8.53178Z"
          fill="#F2FCF3"/>
    <path d="M8.5101 13.9561C8.28418 13.5539 8.12578 13.1087 8.05025 12.6358L8.02792 12.6471C7.36665 12.9808 6.79847 13.15 6.03395 13.3777C5.59311 13.5089 5.0869 13.6597 4.45997 13.8726C4.24952 13.944 4.08467 14.0129 4.08467 14.0129C4.52047 13.9423 4.95277 13.9182 4.95277 13.9182C5.48404 13.8946 6.07997 13.9132 6.70557 13.9327C7.29059 13.9509 7.90164 13.97 8.5101 13.9561Z"
          fill="#F2FCF3"/>
</svg>
