<svg width="16" height="16" viewBox="0 0 16 16" fill="none" xmlns="http://www.w3.org/2000/svg">
    <path fill-rule="evenodd" clip-rule="evenodd"
          d="M7.97313 3.68108C8.8891 3.18 11.5196 2.35315 11.6456 2.52663C11.6813 2.57569 11.8116 2.94953 11.9353 3.35748C12.871 6.443 12.7478 8.51088 11.4869 10.8852C10.9266 11.9403 9.90284 12.8925 8.50869 13.6551C7.90248 13.9867 6.84907 14.3091 6.54307 14.2567C6.36917 14.2269 6.37185 14.1712 6.58559 13.3889C6.71119 12.9291 6.89932 12.2308 7.0036 11.8371C7.2393 10.9474 7.80607 9.5791 8.67071 7.81234C9.0361 7.0657 9.31798 6.45267 9.29717 6.45011C9.20964 6.43958 8.1196 7.47895 7.59047 8.07746C6.65688 9.13336 6.12424 10.0116 5.33554 11.7957C5.06484 12.408 4.88016 12.7248 4.73071 12.8334L4.51556 12.9896L4.14223 12.3907C3.76515 11.7859 3.65498 11.4921 3.52403 10.7419C3.25753 9.21555 3.8777 7.31624 5.11142 5.87997C5.46428 5.46919 5.73612 5.2411 6.64781 4.59051C7.25698 4.15579 7.8534 3.74651 7.97313 3.68108Z"
          fill="#37D379"/>
</svg>
