<svg width="40" height="40" viewBox="0 0 40 40" fill="none" xmlns="http://www.w3.org/2000/svg">
    <path fill-rule="evenodd" clip-rule="evenodd" d="M28.4578 7.85547H31.6489C33.685 7.85547 35.3356 9.50608 35.3356 11.5422V16.6533L37.2721 18.6364C38.0126 19.3947 38.0126 20.6054 37.2721 21.3637L35.3356 23.3467V28.8916C35.3356 30.6882 33.8792 32.1446 32.0826 32.1446H28.4578V29.1085H32.0826C32.2024 29.1085 32.2995 29.0114 32.2995 28.8916V22.9051C32.2995 22.3955 32.4988 21.9061 32.8549 21.5415L34.1532 20.5093C34.4809 20.2489 34.4809 19.7512 34.1532 19.4908L32.8549 18.4586C32.4988 18.094 32.2995 17.6046 32.2995 17.095V11.5422C32.2995 11.1829 32.0082 10.8916 31.6489 10.8916H28.4578V7.85547Z" fill="#35C170"/>
    <path fill-rule="evenodd" clip-rule="evenodd" d="M11.3697 32.1446H8.17862C6.14248 32.1446 4.49187 30.494 4.49187 28.4579V23.3467L2.55538 21.3637C1.81488 20.6054 1.81487 19.3947 2.55538 18.6364L4.49187 16.6534V11.1085C4.49187 9.31189 5.94829 7.85547 7.74488 7.85547H11.3697V10.8916H7.74488C7.62511 10.8916 7.52802 10.9887 7.52802 11.1085V17.095C7.52802 17.6046 7.32869 18.094 6.97264 18.4586L5.67429 19.4908C5.34664 19.7512 5.34664 20.2489 5.67429 20.5093L6.97264 21.5415C7.32869 21.9061 7.52802 22.3955 7.52802 22.9051V28.4579C7.52802 28.8172 7.8193 29.1085 8.17862 29.1085H11.3697V32.1446Z" fill="#35C170"/>
    <path d="M16.7993 16.5191L19.1472 9.72437C19.4108 8.96174 20.4993 8.96932 20.752 9.73554L22.9867 16.5106C23.0649 16.7475 23.2448 16.9377 23.4779 17.0299L29.009 19.2178C29.7076 19.4941 29.7235 20.4707 29.0342 20.7693L23.4535 23.1871C23.2347 23.2818 23.0665 23.4639 22.99 23.6884L20.7496 30.2719C20.4923 31.0281 19.4183 31.0358 19.15 30.2833L16.7958 23.6799C16.7175 23.4604 16.5512 23.283 16.3363 23.19L10.749 20.7693C10.0596 20.4707 10.0755 19.4941 10.7742 19.2178L16.3119 17.0272C16.5412 16.9365 16.7192 16.751 16.7993 16.5191Z" fill="#35C170"/>
</svg>