<svg width="40" height="40" viewBox="0 0 128 128" fill="none" xmlns="http://www.w3.org/2000/svg">
    <path fill-rule="evenodd" clip-rule="evenodd" d="M94.0723 20.8193H105.418C112.658 20.8193 118.527 26.6881 118.527 33.9277V52.1006L125.412 59.1515C128.045 61.8477 128.045 66.1523 125.412 68.8485L118.527 75.8994V95.6145C118.527 102.002 113.348 107.181 106.96 107.181H94.0723V96.3855H106.96C107.386 96.3855 107.731 96.0403 107.731 95.6145V74.3292C107.731 72.5172 108.44 70.777 109.706 69.4806L114.323 65.8108C115.487 64.8847 115.487 63.1153 114.323 62.1892L109.706 58.5194C108.44 57.223 107.731 55.4828 107.731 53.6708V33.9277C107.731 32.6501 106.696 31.6145 105.418 31.6145H94.0723V20.8193Z" fill="#35C170"/>
    <path fill-rule="evenodd" clip-rule="evenodd" d="M33.3144 107.181H21.9684C14.7288 107.181 8.85999 101.312 8.85999 94.0723V75.8994L1.97467 68.8485C-0.658221 66.1523 -0.658227 61.8477 1.97467 59.1515L8.85999 52.1006V32.3855C8.85999 25.9977 14.0384 20.8193 20.4263 20.8193H33.3144V31.6145H20.4263C20.0004 31.6145 19.6552 31.9597 19.6552 32.3855V53.6708C19.6552 55.4828 18.9465 57.223 17.6805 58.5194L13.0642 62.1892C11.8992 63.1153 11.8992 64.8847 13.0642 65.8108L17.6805 69.4806C18.9465 70.777 19.6552 72.5172 19.6552 74.3292V94.0723C19.6552 95.3499 20.6908 96.3855 21.9684 96.3855H33.3144V107.181Z" fill="#35C170"/>
    <path d="M52.6199 51.6236L60.968 27.4645C61.905 24.7529 65.7754 24.7799 66.674 27.5042L74.6196 51.5933C74.8974 52.4354 75.537 53.1117 76.3659 53.4396L96.0319 61.2188C98.516 62.2014 98.5725 65.6736 96.1216 66.7354L76.279 75.3319C75.5013 75.6688 74.903 76.3162 74.6313 77.1145L66.6653 100.522C65.7503 103.211 61.9317 103.238 60.9779 100.563L52.6072 77.0841C52.3291 76.3039 51.7376 75.6731 50.9737 75.3422L31.1074 66.7354C28.6566 65.6736 28.713 62.2014 31.1972 61.2188L50.887 53.4302C51.7022 53.1077 52.335 52.4479 52.6199 51.6236Z" fill="#35C170"/>
</svg>