<svg width="40" height="40" viewBox="0 0 40 40" fill="none" xmlns="http://www.w3.org/2000/svg">
<path d="M9.95811 34.7771C8.71407 34.7771 7.63872 34.5662 6.73205 34.1445C5.84646 33.7439 5.17173 33.143 4.70785 32.3417C4.24398 31.5616 4.04367 30.6233 4.10692 29.5268L4.4232 24.3398C4.48646 23.2223 4.31778 22.4211 3.91715 21.9361C3.51653 21.4301 2.63095 21.177 1.2604 21.177H0V18.6468H1.2604C2.63095 18.6468 3.51653 18.4043 3.91715 17.9194C4.31778 17.4133 4.48646 16.6015 4.4232 15.484L4.10692 10.297C4.04367 9.17948 4.24398 8.23064 4.70785 7.45048C5.17173 6.67033 5.84646 6.07994 6.73205 5.67931C7.63872 5.25761 8.71407 5.04675 9.95811 5.04675H11.3814V7.57699H9.95811C8.96709 7.57699 8.20802 7.80893 7.68089 8.27281C7.15375 8.7156 6.91127 9.39033 6.95344 10.297L7.26972 15.484C7.35406 16.8545 7.02724 17.951 6.28925 18.7733C5.55127 19.5746 4.50754 19.9752 3.15808 19.9752V19.817C4.48646 19.817 5.51964 20.2282 6.25763 21.0505C7.0167 21.8729 7.35406 22.9693 7.26972 24.3398L6.95344 29.5268C6.91127 30.4335 7.15375 31.1082 7.68089 31.551C8.20802 32.0149 8.96709 32.2468 9.95811 32.2468H11.3814V34.7771H9.95811Z" fill="#6B6C6F"/>
<path d="M28.6187 34.7771V32.2468H30.0419C31.0329 32.2468 31.792 32.0149 32.3191 31.551C32.8463 31.1082 33.0887 30.4335 33.0466 29.5268L32.7303 24.3398C32.646 22.9693 32.9728 21.8729 33.7108 21.0505C34.4698 20.2282 35.5136 19.817 36.8419 19.817V19.9752C35.4925 19.9752 34.4488 19.5746 33.7108 18.7733C32.9728 17.951 32.646 16.8545 32.7303 15.484L33.0466 10.297C33.0887 9.39033 32.8463 8.7156 32.3191 8.27281C31.792 7.80893 31.0329 7.57699 30.0419 7.57699H28.6187V5.04675H30.0419C31.2859 5.04675 32.3508 5.25761 33.2363 5.67931C34.143 6.07994 34.8283 6.67033 35.2922 7.45048C35.756 8.23064 35.9564 9.17948 35.8931 10.297L35.5768 15.484C35.5136 16.6015 35.6822 17.4133 36.0829 17.9194C36.4835 18.4043 37.3691 18.6468 38.7396 18.6468H40V21.177H38.7396C37.3902 21.177 36.5046 21.4301 36.0829 21.9361C35.6822 22.4211 35.5136 23.2223 35.5768 24.3398L35.8931 29.5268C35.9564 30.6233 35.756 31.5616 35.2922 32.3417C34.8283 33.143 34.143 33.7439 33.2363 34.1445C32.3508 34.5662 31.2859 34.7771 30.0419 34.7771H28.6187Z" fill="#6B6C6F"/>
<path fill-rule="evenodd" clip-rule="evenodd" d="M20.2578 13.7786C21.534 13.0805 25.1991 11.9284 25.3746 12.1701C25.4243 12.2385 25.6058 12.7594 25.7782 13.3278C27.0819 17.6268 26.9102 20.5079 25.1535 23.8161C24.3728 25.2862 22.9464 26.6128 21.0039 27.6753C20.1593 28.1373 18.6916 28.5865 18.2653 28.5135C18.023 28.472 18.0267 28.3945 18.3245 27.3044C18.4995 26.6638 18.7616 25.6909 18.9069 25.1423C19.2353 23.9028 20.025 21.9963 21.2297 19.5347C21.7388 18.4944 22.1315 17.6402 22.1025 17.6367C21.9806 17.622 20.4618 19.0702 19.7246 19.9041C18.4238 21.3752 17.6817 22.5989 16.5828 25.0847C16.2057 25.9377 15.9483 26.3792 15.7401 26.5304L15.4404 26.7481L14.9202 25.9137C14.3948 25.0709 14.2413 24.6616 14.0589 23.6164C13.6876 21.4897 14.5516 18.8434 16.2706 16.8423C16.7622 16.27 17.141 15.9522 18.4112 15.0457C19.2599 14.44 20.0909 13.8698 20.2578 13.7786Z" fill="#37D379"/>
</svg>
