<svg width="13" height="13" viewBox="0 0 13 13" fill="none" xmlns="http://www.w3.org/2000/svg">
<path fill-rule="evenodd" clip-rule="evenodd" d="M9.55422 2.1145H10.7065C11.4418 2.1145 12.0379 2.71056 12.0379 3.44583V5.29151L12.7372 6.00762C13.0046 6.28145 13.0046 6.71864 12.7372 6.99247L12.0379 7.70857V9.71089C12.0379 10.3597 11.5119 10.8856 10.8632 10.8856H9.55422V9.7892H10.8632C10.9064 9.7892 10.9415 9.75414 10.9415 9.71089V7.5491C10.9415 7.36507 11.0135 7.18834 11.142 7.05667L11.6109 6.68395C11.7292 6.58989 11.7292 6.4102 11.6109 6.31614L11.142 5.94342C11.0135 5.81175 10.9415 5.63502 10.9415 5.45099V3.44583C10.9415 3.31607 10.8363 3.21089 10.7065 3.21089H9.55422V2.1145Z" fill="#CED0D6"/>
<path fill-rule="evenodd" clip-rule="evenodd" d="M3.38349 10.8856H2.23117C1.4959 10.8856 0.899842 10.2895 0.899842 9.55426V7.70857L0.200553 6.99247C-0.0668506 6.71864 -0.0668512 6.28145 0.200553 6.00762L0.899842 5.29151V3.2892C0.899842 2.64043 1.42577 2.1145 2.07454 2.1145H3.38349V3.21089H2.07454C2.03129 3.21089 1.99623 3.24595 1.99623 3.2892V5.45099C1.99623 5.63502 1.92425 5.81175 1.79568 5.94342L1.32683 6.31614C1.20851 6.4102 1.20851 6.58989 1.32683 6.68395L1.79568 7.05667C1.92425 7.18834 1.99623 7.36507 1.99623 7.5491V9.55426C1.99623 9.68401 2.10141 9.7892 2.23117 9.7892H3.38349V10.8856Z" fill="#CED0D6"/>
<path d="M7.56264 7.20543C7.47411 6.27019 6.72984 5.52593 5.79461 5.4374C5.87941 4.62959 6.56263 4 7.39289 4C8.28049 4 9.00004 4.71954 9.00004 5.60714C9.00004 6.43741 8.37045 7.12063 7.56264 7.20543Z" fill="#CED0D6"/>
<path d="M7.21429 7.39286C7.21429 8.28046 6.49474 9 5.60714 9C4.71954 9 4 8.28046 4 7.39286C4 6.50526 4.71954 5.78571 5.60714 5.78571C6.49474 5.78571 7.21429 6.50526 7.21429 7.39286Z" fill="#CED0D6"/>
</svg>
