<?xml version="1.0" standalone="no"?>
<!DOCTYPE svg PUBLIC "-//W3C//DTD SVG 20010904//EN"
        "http://www.w3.org/TR/2001/REC-SVG-20010904/DTD/svg10.dtd">
<!-- The icon to display on the tool window button (13x13 pixels, grey and monochromatic;
see Tool Window in UI Guidelines and Working with Icons) -->
<svg version="1.0" xmlns="http://www.w3.org/2000/svg"
     width="13pt" height="13pt" viewBox="0 0 640.000000 640.000000"
     preserveAspectRatio="xMidYMid meet">

    <g transform="translate(0.000000,640.000000) scale(0.100000,-0.100000)"
       fill="#000000" stroke="none">
        <path d="M0 3200 l0 -3200 3200 0 3200 0 0 3200 0 3200 -3200 0 -3200 0 0
-3200z m2000 1475 l0 -205 -260 0 c-246 0 -260 -1 -270 -19 -6 -13 -10 -175
-10 -458 0 -256 -4 -453 -10 -473 -15 -55 -47 -91 -162 -184 -155 -125 -155
-150 -1 -271 182 -144 167 -91 173 -628 l5 -449 33 -29 32 -29 235 0 235 0 0
-205 0 -205 -258 0 c-281 0 -330 7 -426 58 -68 36 -175 144 -208 212 -55 110
-58 141 -58 560 l-1 385 -149 155 c-170 177 -193 213 -194 310 0 96 22 132
193 310 l150 155 1 410 c0 336 3 422 15 470 41 156 152 271 310 321 28 9 125
13 333 13 l292 1 0 -205z m2945 191 c167 -44 303 -172 357 -335 21 -63 22 -86
26 -471 l3 -405 148 -150 c82 -82 157 -166 167 -185 14 -26 19 -56 19 -120 0
-112 -15 -136 -194 -315 l-141 -140 0 -390 c0 -214 -5 -418 -10 -453 -18 -130
-111 -267 -221 -327 -93 -50 -130 -55 -436 -55 l-283 0 0 205 0 205 253 0
c138 0 257 4 264 8 9 6 13 123 15 467 l3 460 27 51 c20 38 51 70 125 129 54
42 106 86 116 97 18 21 23 83 8 107 -5 7 -57 52 -117 100 -83 66 -114 98 -134
136 l-25 49 -5 444 -5 444 -28 24 c-28 24 -29 24 -263 24 l-234 0 0 205 0 205
258 0 c183 0 271 -4 307 -14z m-1688 -186 c31 -18 38 -39 194 -512 89 -271
170 -505 181 -520 15 -22 93 -56 426 -187 449 -178 462 -185 462 -261 0 -73
-17 -83 -450 -270 -217 -94 -406 -178 -420 -188 -21 -16 -54 -105 -192 -508
-185 -541 -182 -534 -263 -534 -85 0 -84 -1 -274 534 -94 263 -178 487 -186
496 -18 20 -10 16 -480 220 -385 166 -405 178 -405 250 0 76 13 83 460 260
302 119 410 166 425 184 11 14 57 132 102 263 259 755 252 737 284 766 36 33
89 36 136 7z"/>
    </g>
</svg>
