<!--
  - Copyright © 2025 Explyt Ltd
  -
  - All rights reserved.
  -
  - This code and software are the property of Explyt Ltd and are protected by copyright and other intellectual property laws.
  -
  - You may use this code under the terms of the Explyt Source License Version 1.0 ("License"), if you accept its terms and conditions.
  -
  - By installing, downloading, accessing, using, or distributing this code, you agree to the terms and conditions of the License.
  - If you do not agree to such terms and conditions, you must cease using this code and immediately delete all copies of it.
  -
  - You may obtain a copy of the License at: https://github.com/explyt/spring-plugin/blob/main/EXPLYT-SOURCE-LICENSE.md
  -
  - Unauthorized use of this code constitutes a violation of intellectual property rights and may result in legal action.
  -->
<svg width="16" height="16" viewBox="0 0 16 16" fill="none" xmlns="http://www.w3.org/2000/svg">
    <path d="M12.9497 3.05025C15.6834 5.78392 15.6834 10.2161 12.9497 12.9497C10.2161 15.6834 5.78391 15.6834 3.05024 12.9497C0.316572 10.2161 0.316572 5.78392 3.05024 3.05025C5.78391 0.316583 10.2161 0.316583 12.9497 3.05025Z"
          fill="#402929"/>
    <path d="M10.0657 5.24573C9.25361 5.24573 8.636 5.6473 8.29593 6.31537C8.00368 5.64257 7.40552 5.24573 6.6071 5.24573C5.84915 5.24573 5.28147 5.60946 4.96189 6.24862V5.37188H4V10.7543H4.99869V7.59001C4.99869 6.68068 5.5138 6.10775 6.32852 6.10775C7.0749 6.10775 7.50591 6.61761 7.50591 7.43758V10.7543H8.49409V7.59001C8.49409 6.68068 9.01971 6.10775 9.82392 6.10775C10.5756 6.10775 11.0013 6.61761 11.0013 7.43758V10.7543H12V7.35874C12 6.07096 11.2168 5.24573 10.0657 5.24573Z"
          fill="#DB5C5C"/>
    <circle cx="8" cy="8" r="6.5" stroke="#CED0D6"/>
</svg>
