<svg width="16" height="16" viewBox="0 0 16 16" fill="none" xmlns="http://www.w3.org/2000/svg">
    <path fill-rule="evenodd" clip-rule="evenodd"
          d="M11.759 2.60242H13.1773C14.0822 2.60242 14.8158 3.33602 14.8158 4.24097V6.51259L15.6765 7.39394C16.0056 7.73097 16.0056 8.26905 15.6765 8.60607L14.8158 9.48743V11.9518C14.8158 12.7503 14.1685 13.3976 13.3701 13.3976H11.759V12.0482H13.3701C13.4233 12.0482 13.4664 12.005 13.4664 11.9518V9.29115C13.4664 9.06465 13.555 8.84714 13.7133 8.68509L14.2903 8.22635C14.4359 8.11059 14.4359 7.88943 14.2903 7.77366L13.7133 7.31493C13.555 7.15288 13.4664 6.93536 13.4664 6.70886V4.24097C13.4664 4.08127 13.337 3.95181 13.1773 3.95181H11.759V2.60242Z"
          fill="#37D379"/>
    <path fill-rule="evenodd" clip-rule="evenodd"
          d="M4.1643 13.3976H2.74605C1.8411 13.3976 1.1075 12.664 1.1075 11.759V9.48743L0.246834 8.60607C-0.0822776 8.26905 -0.0822784 7.73097 0.246834 7.39394L1.1075 6.51259V4.0482C1.1075 3.24972 1.7548 2.60242 2.55328 2.60242H4.1643V3.95182H2.55328C2.50005 3.95182 2.4569 3.99497 2.4569 4.0482V6.70886C2.4569 6.93536 2.36831 7.15288 2.21006 7.31493L1.63302 7.77366C1.4874 7.88943 1.4874 8.11059 1.63302 8.22636L2.21006 8.68509C2.36831 8.84714 2.4569 9.06465 2.4569 9.29115V11.759C2.4569 11.9187 2.58636 12.0482 2.74605 12.0482H4.1643V13.3976Z"
          fill="#37D379"/>
    <path d="M6.57742 6.45289L7.62094 3.433C7.73806 3.09405 8.22186 3.09742 8.33419 3.43797L9.32739 6.4491C9.36211 6.55437 9.44207 6.63891 9.54568 6.67989L12.0039 7.65229C12.3144 7.77511 12.3215 8.20913 12.0151 8.34186L9.53482 9.41643C9.43761 9.45854 9.36281 9.53946 9.32885 9.63925L8.3331 12.5652C8.21873 12.9013 7.7414 12.9047 7.62217 12.5703L6.57584 9.63546C6.54107 9.53792 6.46713 9.45908 6.37165 9.41771L3.88837 8.34186C3.58201 8.20913 3.58907 7.77512 3.89958 7.65229L6.36081 6.67871C6.46271 6.63841 6.54182 6.55593 6.57742 6.45289Z"
          fill="#37D379"/>
</svg>
